solid STL generated by MeshLab
  facet normal -0.000000e+00  0.000000e+00  1.000000e+00
    outer loop
      vertex  -2.545600e+01 -2.449500e+01  0.000000e+00
      vertex  -1.697100e+01 -2.939400e+01  0.000000e+00
      vertex  -1.697100e+01 -1.959600e+01  0.000000e+00
    endloop
  endfacet
  facet normal  0.000000e+00  0.000000e+00  1.000000e+00
    outer loop
      vertex  -1.697100e+01 -2.939400e+01  0.000000e+00
      vertex  -2.545600e+01 -2.449500e+01  0.000000e+00
      vertex  -2.545600e+01 -3.429300e+01  0.000000e+00
    endloop
  endfacet
  facet normal  0.000000e+00  0.000000e+00  1.000000e+00
    outer loop
      vertex  -8.485000e+00 -2.449500e+01  0.000000e+00
      vertex  -1.697100e+01 -2.939400e+01  0.000000e+00
      vertex  -8.485000e+00 -3.429300e+01  0.000000e+00
    endloop
  endfacet
  facet normal  0.000000e+00  0.000000e+00  1.000000e+00
    outer loop
      vertex  -1.697100e+01 -2.939400e+01  0.000000e+00
      vertex  -8.485000e+00 -2.449500e+01  0.000000e+00
      vertex  -1.697100e+01 -1.959600e+01  0.000000e+00
    endloop
  endfacet
  facet normal  0.000000e+00 -0.000000e+00  1.000000e+00
    outer loop
      vertex  -1.697100e+01 -3.919200e+01  0.000000e+00
      vertex  -1.697100e+01 -2.939400e+01  0.000000e+00
      vertex  -2.545600e+01 -3.429300e+01  0.000000e+00
    endloop
  endfacet
  facet normal  0.000000e+00  0.000000e+00  1.000000e+00
    outer loop
      vertex  -1.697100e+01 -2.939400e+01  0.000000e+00
      vertex  -1.697100e+01 -3.919200e+01  0.000000e+00
      vertex  -8.485000e+00 -3.429300e+01  0.000000e+00
    endloop
  endfacet
  facet normal -0.000000e+00  0.000000e+00  1.000000e+00
    outer loop
      vertex  -8.485000e+00 -2.449500e+01  0.000000e+00
      vertex  -0.000000e+00 -2.939400e+01  0.000000e+00
      vertex   0.000000e+00 -1.959600e+01  0.000000e+00
    endloop
  endfacet
  facet normal  0.000000e+00  0.000000e+00  1.000000e+00
    outer loop
      vertex  -0.000000e+00 -2.939400e+01  0.000000e+00
      vertex  -8.485000e+00 -2.449500e+01  0.000000e+00
      vertex  -8.485000e+00 -3.429300e+01  0.000000e+00
    endloop
  endfacet
  facet normal  0.000000e+00  0.000000e+00  1.000000e+00
    outer loop
      vertex   8.485000e+00 -2.449500e+01  0.000000e+00
      vertex  -0.000000e+00 -2.939400e+01  0.000000e+00
      vertex   8.485000e+00 -3.429300e+01  0.000000e+00
    endloop
  endfacet
  facet normal  0.000000e+00  0.000000e+00  1.000000e+00
    outer loop
      vertex  -0.000000e+00 -2.939400e+01  0.000000e+00
      vertex   8.485000e+00 -2.449500e+01  0.000000e+00
      vertex   0.000000e+00 -1.959600e+01  0.000000e+00
    endloop
  endfacet
  facet normal  0.000000e+00 -0.000000e+00  1.000000e+00
    outer loop
      vertex  -0.000000e+00 -3.919200e+01  0.000000e+00
      vertex  -0.000000e+00 -2.939400e+01  0.000000e+00
      vertex  -8.485000e+00 -3.429300e+01  0.000000e+00
    endloop
  endfacet
  facet normal  0.000000e+00  0.000000e+00  1.000000e+00
    outer loop
      vertex  -0.000000e+00 -2.939400e+01  0.000000e+00
      vertex  -0.000000e+00 -3.919200e+01  0.000000e+00
      vertex   8.485000e+00 -3.429300e+01  0.000000e+00
    endloop
  endfacet
  facet normal -0.000000e+00  0.000000e+00  1.000000e+00
    outer loop
      vertex   8.485000e+00 -2.449500e+01  0.000000e+00
      vertex   1.697100e+01 -2.939400e+01  0.000000e+00
      vertex   1.697100e+01 -1.959600e+01  0.000000e+00
    endloop
  endfacet
  facet normal  0.000000e+00  0.000000e+00  1.000000e+00
    outer loop
      vertex   1.697100e+01 -2.939400e+01  0.000000e+00
      vertex   8.485000e+00 -2.449500e+01  0.000000e+00
      vertex   8.485000e+00 -3.429300e+01  0.000000e+00
    endloop
  endfacet
  facet normal  0.000000e+00  0.000000e+00  1.000000e+00
    outer loop
      vertex   2.545600e+01 -2.449500e+01  0.000000e+00
      vertex   1.697100e+01 -2.939400e+01  0.000000e+00
      vertex   2.545600e+01 -3.429300e+01  0.000000e+00
    endloop
  endfacet
  facet normal  0.000000e+00  0.000000e+00  1.000000e+00
    outer loop
      vertex   1.697100e+01 -2.939400e+01  0.000000e+00
      vertex   2.545600e+01 -2.449500e+01  0.000000e+00
      vertex   1.697100e+01 -1.959600e+01  0.000000e+00
    endloop
  endfacet
  facet normal  0.000000e+00 -0.000000e+00  1.000000e+00
    outer loop
      vertex   1.697100e+01 -3.919200e+01  0.000000e+00
      vertex   1.697100e+01 -2.939400e+01  0.000000e+00
      vertex   8.485000e+00 -3.429300e+01  0.000000e+00
    endloop
  endfacet
  facet normal  0.000000e+00  0.000000e+00  1.000000e+00
    outer loop
      vertex   1.697100e+01 -2.939400e+01  0.000000e+00
      vertex   1.697100e+01 -3.919200e+01  0.000000e+00
      vertex   2.545600e+01 -3.429300e+01  0.000000e+00
    endloop
  endfacet
  facet normal -0.000000e+00  0.000000e+00  1.000000e+00
    outer loop
      vertex  -3.394100e+01 -9.798000e+00  0.000000e+00
      vertex  -2.545600e+01 -1.469700e+01  0.000000e+00
      vertex  -2.545600e+01 -4.899000e+00  0.000000e+00
    endloop
  endfacet
  facet normal  0.000000e+00  0.000000e+00  1.000000e+00
    outer loop
      vertex  -2.545600e+01 -1.469700e+01  0.000000e+00
      vertex  -3.394100e+01 -9.798000e+00  0.000000e+00
      vertex  -3.394100e+01 -1.959600e+01  0.000000e+00
    endloop
  endfacet
  facet normal  0.000000e+00  0.000000e+00  1.000000e+00
    outer loop
      vertex  -1.697100e+01 -9.798000e+00  0.000000e+00
      vertex  -2.545600e+01 -1.469700e+01  0.000000e+00
      vertex  -1.697100e+01 -1.959600e+01  0.000000e+00
    endloop
  endfacet
  facet normal  0.000000e+00  0.000000e+00  1.000000e+00
    outer loop
      vertex  -2.545600e+01 -1.469700e+01  0.000000e+00
      vertex  -1.697100e+01 -9.798000e+00  0.000000e+00
      vertex  -2.545600e+01 -4.899000e+00  0.000000e+00
    endloop
  endfacet
  facet normal  0.000000e+00 -0.000000e+00  1.000000e+00
    outer loop
      vertex  -2.545600e+01 -2.449500e+01  0.000000e+00
      vertex  -2.545600e+01 -1.469700e+01  0.000000e+00
      vertex  -3.394100e+01 -1.959600e+01  0.000000e+00
    endloop
  endfacet
  facet normal  0.000000e+00  0.000000e+00  1.000000e+00
    outer loop
      vertex  -2.545600e+01 -1.469700e+01  0.000000e+00
      vertex  -2.545600e+01 -2.449500e+01  0.000000e+00
      vertex  -1.697100e+01 -1.959600e+01  0.000000e+00
    endloop
  endfacet
  facet normal -0.000000e+00  0.000000e+00  1.000000e+00
    outer loop
      vertex  -1.697100e+01 -9.798000e+00  0.000000e+00
      vertex  -8.485000e+00 -1.469700e+01  0.000000e+00
      vertex  -8.485000e+00 -4.899000e+00  0.000000e+00
    endloop
  endfacet
  facet normal  0.000000e+00  0.000000e+00  1.000000e+00
    outer loop
      vertex  -8.485000e+00 -1.469700e+01  0.000000e+00
      vertex  -1.697100e+01 -9.798000e+00  0.000000e+00
      vertex  -1.697100e+01 -1.959600e+01  0.000000e+00
    endloop
  endfacet
  facet normal  0.000000e+00  0.000000e+00  1.000000e+00
    outer loop
      vertex   0.000000e+00 -9.798000e+00  0.000000e+00
      vertex  -8.485000e+00 -1.469700e+01  0.000000e+00
      vertex   0.000000e+00 -1.959600e+01  0.000000e+00
    endloop
  endfacet
  facet normal  0.000000e+00  0.000000e+00  1.000000e+00
    outer loop
      vertex  -8.485000e+00 -1.469700e+01  0.000000e+00
      vertex   0.000000e+00 -9.798000e+00  0.000000e+00
      vertex  -8.485000e+00 -4.899000e+00  0.000000e+00
    endloop
  endfacet
  facet normal  0.000000e+00 -0.000000e+00  1.000000e+00
    outer loop
      vertex  -8.485000e+00 -2.449500e+01  0.000000e+00
      vertex  -8.485000e+00 -1.469700e+01  0.000000e+00
      vertex  -1.697100e+01 -1.959600e+01  0.000000e+00
    endloop
  endfacet
  facet normal  0.000000e+00  0.000000e+00  1.000000e+00
    outer loop
      vertex  -8.485000e+00 -1.469700e+01  0.000000e+00
      vertex  -8.485000e+00 -2.449500e+01  0.000000e+00
      vertex   0.000000e+00 -1.959600e+01  0.000000e+00
    endloop
  endfacet
  facet normal -0.000000e+00  0.000000e+00  1.000000e+00
    outer loop
      vertex   0.000000e+00 -9.798000e+00  0.000000e+00
      vertex   8.485000e+00 -1.469700e+01  0.000000e+00
      vertex   8.485000e+00 -4.899000e+00  0.000000e+00
    endloop
  endfacet
  facet normal  0.000000e+00  0.000000e+00  1.000000e+00
    outer loop
      vertex   8.485000e+00 -1.469700e+01  0.000000e+00
      vertex   0.000000e+00 -9.798000e+00  0.000000e+00
      vertex   0.000000e+00 -1.959600e+01  0.000000e+00
    endloop
  endfacet
  facet normal  0.000000e+00  0.000000e+00  1.000000e+00
    outer loop
      vertex   1.697100e+01 -9.798000e+00  0.000000e+00
      vertex   8.485000e+00 -1.469700e+01  0.000000e+00
      vertex   1.697100e+01 -1.959600e+01  0.000000e+00
    endloop
  endfacet
  facet normal  0.000000e+00  0.000000e+00  1.000000e+00
    outer loop
      vertex   8.485000e+00 -1.469700e+01  0.000000e+00
      vertex   1.697100e+01 -9.798000e+00  0.000000e+00
      vertex   8.485000e+00 -4.899000e+00  0.000000e+00
    endloop
  endfacet
  facet normal  0.000000e+00 -0.000000e+00  1.000000e+00
    outer loop
      vertex   8.485000e+00 -2.449500e+01  0.000000e+00
      vertex   8.485000e+00 -1.469700e+01  0.000000e+00
      vertex   0.000000e+00 -1.959600e+01  0.000000e+00
    endloop
  endfacet
  facet normal  0.000000e+00  0.000000e+00  1.000000e+00
    outer loop
      vertex   8.485000e+00 -1.469700e+01  0.000000e+00
      vertex   8.485000e+00 -2.449500e+01  0.000000e+00
      vertex   1.697100e+01 -1.959600e+01  0.000000e+00
    endloop
  endfacet
  facet normal -0.000000e+00  0.000000e+00  1.000000e+00
    outer loop
      vertex   1.697100e+01 -9.798000e+00  0.000000e+00
      vertex   2.545600e+01 -1.469700e+01  0.000000e+00
      vertex   2.545600e+01 -4.899000e+00  0.000000e+00
    endloop
  endfacet
  facet normal  0.000000e+00  0.000000e+00  1.000000e+00
    outer loop
      vertex   2.545600e+01 -1.469700e+01  0.000000e+00
      vertex   1.697100e+01 -9.798000e+00  0.000000e+00
      vertex   1.697100e+01 -1.959600e+01  0.000000e+00
    endloop
  endfacet
  facet normal  0.000000e+00  0.000000e+00  1.000000e+00
    outer loop
      vertex   3.394100e+01 -9.798000e+00  0.000000e+00
      vertex   2.545600e+01 -1.469700e+01  0.000000e+00
      vertex   3.394100e+01 -1.959600e+01  0.000000e+00
    endloop
  endfacet
  facet normal  0.000000e+00  0.000000e+00  1.000000e+00
    outer loop
      vertex   2.545600e+01 -1.469700e+01  0.000000e+00
      vertex   3.394100e+01 -9.798000e+00  0.000000e+00
      vertex   2.545600e+01 -4.899000e+00  0.000000e+00
    endloop
  endfacet
  facet normal  0.000000e+00 -0.000000e+00  1.000000e+00
    outer loop
      vertex   2.545600e+01 -2.449500e+01  0.000000e+00
      vertex   2.545600e+01 -1.469700e+01  0.000000e+00
      vertex   1.697100e+01 -1.959600e+01  0.000000e+00
    endloop
  endfacet
  facet normal  0.000000e+00  0.000000e+00  1.000000e+00
    outer loop
      vertex   2.545600e+01 -1.469700e+01  0.000000e+00
      vertex   2.545600e+01 -2.449500e+01  0.000000e+00
      vertex   3.394100e+01 -1.959600e+01  0.000000e+00
    endloop
  endfacet
  facet normal -0.000000e+00  0.000000e+00  1.000000e+00
    outer loop
      vertex  -4.242600e+01  4.899000e+00  0.000000e+00
      vertex  -3.394100e+01  0.000000e+00  0.000000e+00
      vertex  -3.394100e+01  9.798000e+00  0.000000e+00
    endloop
  endfacet
  facet normal  0.000000e+00  0.000000e+00  1.000000e+00
    outer loop
      vertex  -3.394100e+01  0.000000e+00  0.000000e+00
      vertex  -4.242600e+01  4.899000e+00  0.000000e+00
      vertex  -4.242600e+01 -4.899000e+00  0.000000e+00
    endloop
  endfacet
  facet normal  0.000000e+00  0.000000e+00  1.000000e+00
    outer loop
      vertex  -2.545600e+01  4.899000e+00  0.000000e+00
      vertex  -3.394100e+01  0.000000e+00  0.000000e+00
      vertex  -2.545600e+01 -4.899000e+00  0.000000e+00
    endloop
  endfacet
  facet normal  0.000000e+00  0.000000e+00  1.000000e+00
    outer loop
      vertex  -3.394100e+01  0.000000e+00  0.000000e+00
      vertex  -2.545600e+01  4.899000e+00  0.000000e+00
      vertex  -3.394100e+01  9.798000e+00  0.000000e+00
    endloop
  endfacet
  facet normal  0.000000e+00 -0.000000e+00  1.000000e+00
    outer loop
      vertex  -3.394100e+01 -9.798000e+00  0.000000e+00
      vertex  -3.394100e+01  0.000000e+00  0.000000e+00
      vertex  -4.242600e+01 -4.899000e+00  0.000000e+00
    endloop
  endfacet
  facet normal  0.000000e+00  0.000000e+00  1.000000e+00
    outer loop
      vertex  -3.394100e+01  0.000000e+00  0.000000e+00
      vertex  -3.394100e+01 -9.798000e+00  0.000000e+00
      vertex  -2.545600e+01 -4.899000e+00  0.000000e+00
    endloop
  endfacet
  facet normal -0.000000e+00  0.000000e+00  1.000000e+00
    outer loop
      vertex  -2.545600e+01  4.899000e+00  0.000000e+00
      vertex  -1.697100e+01  0.000000e+00  0.000000e+00
      vertex  -1.697100e+01  9.798000e+00  0.000000e+00
    endloop
  endfacet
  facet normal  0.000000e+00  0.000000e+00  1.000000e+00
    outer loop
      vertex  -1.697100e+01  0.000000e+00  0.000000e+00
      vertex  -2.545600e+01  4.899000e+00  0.000000e+00
      vertex  -2.545600e+01 -4.899000e+00  0.000000e+00
    endloop
  endfacet
  facet normal  0.000000e+00  0.000000e+00  1.000000e+00
    outer loop
      vertex  -8.485000e+00  4.899000e+00  0.000000e+00
      vertex  -1.697100e+01  0.000000e+00  0.000000e+00
      vertex  -8.485000e+00 -4.899000e+00  0.000000e+00
    endloop
  endfacet
  facet normal  0.000000e+00  0.000000e+00  1.000000e+00
    outer loop
      vertex  -1.697100e+01  0.000000e+00  0.000000e+00
      vertex  -8.485000e+00  4.899000e+00  0.000000e+00
      vertex  -1.697100e+01  9.798000e+00  0.000000e+00
    endloop
  endfacet
  facet normal  0.000000e+00 -0.000000e+00  1.000000e+00
    outer loop
      vertex  -1.697100e+01 -9.798000e+00  0.000000e+00
      vertex  -1.697100e+01  0.000000e+00  0.000000e+00
      vertex  -2.545600e+01 -4.899000e+00  0.000000e+00
    endloop
  endfacet
  facet normal  0.000000e+00  0.000000e+00  1.000000e+00
    outer loop
      vertex  -1.697100e+01  0.000000e+00  0.000000e+00
      vertex  -1.697100e+01 -9.798000e+00  0.000000e+00
      vertex  -8.485000e+00 -4.899000e+00  0.000000e+00
    endloop
  endfacet
  facet normal -0.000000e+00  0.000000e+00  1.000000e+00
    outer loop
      vertex  -8.485000e+00  4.899000e+00  0.000000e+00
      vertex  -0.000000e+00  0.000000e+00  0.000000e+00
      vertex   0.000000e+00  9.798000e+00  0.000000e+00
    endloop
  endfacet
  facet normal  0.000000e+00  0.000000e+00  1.000000e+00
    outer loop
      vertex  -0.000000e+00  0.000000e+00  0.000000e+00
      vertex  -8.485000e+00  4.899000e+00  0.000000e+00
      vertex  -8.485000e+00 -4.899000e+00  0.000000e+00
    endloop
  endfacet
  facet normal  0.000000e+00  0.000000e+00  1.000000e+00
    outer loop
      vertex   8.485000e+00  4.899000e+00  0.000000e+00
      vertex  -0.000000e+00  0.000000e+00  0.000000e+00
      vertex   8.485000e+00 -4.899000e+00  0.000000e+00
    endloop
  endfacet
  facet normal  0.000000e+00  0.000000e+00  1.000000e+00
    outer loop
      vertex  -0.000000e+00  0.000000e+00  0.000000e+00
      vertex   8.485000e+00  4.899000e+00  0.000000e+00
      vertex   0.000000e+00  9.798000e+00  0.000000e+00
    endloop
  endfacet
  facet normal  0.000000e+00  0.000000e+00  1.000000e+00
    outer loop
      vertex   0.000000e+00 -9.798000e+00  0.000000e+00
      vertex  -0.000000e+00  0.000000e+00  0.000000e+00
      vertex  -8.485000e+00 -4.899000e+00  0.000000e+00
    endloop
  endfacet
  facet normal  0.000000e+00  0.000000e+00  1.000000e+00
    outer loop
      vertex  -0.000000e+00  0.000000e+00  0.000000e+00
      vertex   0.000000e+00 -9.798000e+00  0.000000e+00
      vertex   8.485000e+00 -4.899000e+00  0.000000e+00
    endloop
  endfacet
  facet normal -0.000000e+00  0.000000e+00  1.000000e+00
    outer loop
      vertex   8.485000e+00  4.899000e+00  0.000000e+00
      vertex   1.697100e+01  0.000000e+00  0.000000e+00
      vertex   1.697100e+01  9.798000e+00  0.000000e+00
    endloop
  endfacet
  facet normal  0.000000e+00  0.000000e+00  1.000000e+00
    outer loop
      vertex   1.697100e+01  0.000000e+00  0.000000e+00
      vertex   8.485000e+00  4.899000e+00  0.000000e+00
      vertex   8.485000e+00 -4.899000e+00  0.000000e+00
    endloop
  endfacet
  facet normal  0.000000e+00  0.000000e+00  1.000000e+00
    outer loop
      vertex   2.545600e+01  4.899000e+00  0.000000e+00
      vertex   1.697100e+01  0.000000e+00  0.000000e+00
      vertex   2.545600e+01 -4.899000e+00  0.000000e+00
    endloop
  endfacet
  facet normal  0.000000e+00  0.000000e+00  1.000000e+00
    outer loop
      vertex   1.697100e+01  0.000000e+00  0.000000e+00
      vertex   2.545600e+01  4.899000e+00  0.000000e+00
      vertex   1.697100e+01  9.798000e+00  0.000000e+00
    endloop
  endfacet
  facet normal  0.000000e+00 -0.000000e+00  1.000000e+00
    outer loop
      vertex   1.697100e+01 -9.798000e+00  0.000000e+00
      vertex   1.697100e+01  0.000000e+00  0.000000e+00
      vertex   8.485000e+00 -4.899000e+00  0.000000e+00
    endloop
  endfacet
  facet normal  0.000000e+00  0.000000e+00  1.000000e+00
    outer loop
      vertex   1.697100e+01  0.000000e+00  0.000000e+00
      vertex   1.697100e+01 -9.798000e+00  0.000000e+00
      vertex   2.545600e+01 -4.899000e+00  0.000000e+00
    endloop
  endfacet
  facet normal -0.000000e+00  0.000000e+00  1.000000e+00
    outer loop
      vertex   2.545600e+01  4.899000e+00  0.000000e+00
      vertex   3.394100e+01  0.000000e+00  0.000000e+00
      vertex   3.394100e+01  9.798000e+00  0.000000e+00
    endloop
  endfacet
  facet normal  0.000000e+00  0.000000e+00  1.000000e+00
    outer loop
      vertex   3.394100e+01  0.000000e+00  0.000000e+00
      vertex   2.545600e+01  4.899000e+00  0.000000e+00
      vertex   2.545600e+01 -4.899000e+00  0.000000e+00
    endloop
  endfacet
  facet normal  0.000000e+00  0.000000e+00  1.000000e+00
    outer loop
      vertex   4.242600e+01  4.899000e+00  0.000000e+00
      vertex   3.394100e+01  0.000000e+00  0.000000e+00
      vertex   4.242600e+01 -4.899000e+00  0.000000e+00
    endloop
  endfacet
  facet normal  0.000000e+00  0.000000e+00  1.000000e+00
    outer loop
      vertex   3.394100e+01  0.000000e+00  0.000000e+00
      vertex   4.242600e+01  4.899000e+00  0.000000e+00
      vertex   3.394100e+01  9.798000e+00  0.000000e+00
    endloop
  endfacet
  facet normal  0.000000e+00 -0.000000e+00  1.000000e+00
    outer loop
      vertex   3.394100e+01 -9.798000e+00  0.000000e+00
      vertex   3.394100e+01  0.000000e+00  0.000000e+00
      vertex   2.545600e+01 -4.899000e+00  0.000000e+00
    endloop
  endfacet
  facet normal  0.000000e+00  0.000000e+00  1.000000e+00
    outer loop
      vertex   3.394100e+01  0.000000e+00  0.000000e+00
      vertex   3.394100e+01 -9.798000e+00  0.000000e+00
      vertex   4.242600e+01 -4.899000e+00  0.000000e+00
    endloop
  endfacet
  facet normal -0.000000e+00  0.000000e+00  1.000000e+00
    outer loop
      vertex  -3.394100e+01  1.959600e+01  0.000000e+00
      vertex  -2.545600e+01  1.469700e+01  0.000000e+00
      vertex  -2.545600e+01  2.449500e+01  0.000000e+00
    endloop
  endfacet
  facet normal  0.000000e+00  0.000000e+00  1.000000e+00
    outer loop
      vertex  -2.545600e+01  1.469700e+01  0.000000e+00
      vertex  -3.394100e+01  1.959600e+01  0.000000e+00
      vertex  -3.394100e+01  9.798000e+00  0.000000e+00
    endloop
  endfacet
  facet normal  0.000000e+00  0.000000e+00  1.000000e+00
    outer loop
      vertex  -1.697100e+01  1.959600e+01  0.000000e+00
      vertex  -2.545600e+01  1.469700e+01  0.000000e+00
      vertex  -1.697100e+01  9.798000e+00  0.000000e+00
    endloop
  endfacet
  facet normal  0.000000e+00  0.000000e+00  1.000000e+00
    outer loop
      vertex  -2.545600e+01  1.469700e+01  0.000000e+00
      vertex  -1.697100e+01  1.959600e+01  0.000000e+00
      vertex  -2.545600e+01  2.449500e+01  0.000000e+00
    endloop
  endfacet
  facet normal  0.000000e+00 -0.000000e+00  1.000000e+00
    outer loop
      vertex  -2.545600e+01  4.899000e+00  0.000000e+00
      vertex  -2.545600e+01  1.469700e+01  0.000000e+00
      vertex  -3.394100e+01  9.798000e+00  0.000000e+00
    endloop
  endfacet
  facet normal  0.000000e+00  0.000000e+00  1.000000e+00
    outer loop
      vertex  -2.545600e+01  1.469700e+01  0.000000e+00
      vertex  -2.545600e+01  4.899000e+00  0.000000e+00
      vertex  -1.697100e+01  9.798000e+00  0.000000e+00
    endloop
  endfacet
  facet normal -0.000000e+00  0.000000e+00  1.000000e+00
    outer loop
      vertex  -1.697100e+01  1.959600e+01  0.000000e+00
      vertex  -8.485000e+00  1.469700e+01  0.000000e+00
      vertex  -8.485000e+00  2.449500e+01  0.000000e+00
    endloop
  endfacet
  facet normal  0.000000e+00  0.000000e+00  1.000000e+00
    outer loop
      vertex  -8.485000e+00  1.469700e+01  0.000000e+00
      vertex  -1.697100e+01  1.959600e+01  0.000000e+00
      vertex  -1.697100e+01  9.798000e+00  0.000000e+00
    endloop
  endfacet
  facet normal  0.000000e+00  0.000000e+00  1.000000e+00
    outer loop
      vertex   0.000000e+00  1.959600e+01  0.000000e+00
      vertex  -8.485000e+00  1.469700e+01  0.000000e+00
      vertex   0.000000e+00  9.798000e+00  0.000000e+00
    endloop
  endfacet
  facet normal  0.000000e+00  0.000000e+00  1.000000e+00
    outer loop
      vertex  -8.485000e+00  1.469700e+01  0.000000e+00
      vertex   0.000000e+00  1.959600e+01  0.000000e+00
      vertex  -8.485000e+00  2.449500e+01  0.000000e+00
    endloop
  endfacet
  facet normal  0.000000e+00 -0.000000e+00  1.000000e+00
    outer loop
      vertex  -8.485000e+00  4.899000e+00  0.000000e+00
      vertex  -8.485000e+00  1.469700e+01  0.000000e+00
      vertex  -1.697100e+01  9.798000e+00  0.000000e+00
    endloop
  endfacet
  facet normal  0.000000e+00  0.000000e+00  1.000000e+00
    outer loop
      vertex  -8.485000e+00  1.469700e+01  0.000000e+00
      vertex  -8.485000e+00  4.899000e+00  0.000000e+00
      vertex   0.000000e+00  9.798000e+00  0.000000e+00
    endloop
  endfacet
  facet normal -0.000000e+00  0.000000e+00  1.000000e+00
    outer loop
      vertex   0.000000e+00  1.959600e+01  0.000000e+00
      vertex   8.485000e+00  1.469700e+01  0.000000e+00
      vertex   8.485000e+00  2.449500e+01  0.000000e+00
    endloop
  endfacet
  facet normal  0.000000e+00  0.000000e+00  1.000000e+00
    outer loop
      vertex   8.485000e+00  1.469700e+01  0.000000e+00
      vertex   0.000000e+00  1.959600e+01  0.000000e+00
      vertex   0.000000e+00  9.798000e+00  0.000000e+00
    endloop
  endfacet
  facet normal  0.000000e+00  0.000000e+00  1.000000e+00
    outer loop
      vertex   1.697100e+01  1.959600e+01  0.000000e+00
      vertex   8.485000e+00  1.469700e+01  0.000000e+00
      vertex   1.697100e+01  9.798000e+00  0.000000e+00
    endloop
  endfacet
  facet normal  0.000000e+00  0.000000e+00  1.000000e+00
    outer loop
      vertex   8.485000e+00  1.469700e+01  0.000000e+00
      vertex   1.697100e+01  1.959600e+01  0.000000e+00
      vertex   8.485000e+00  2.449500e+01  0.000000e+00
    endloop
  endfacet
  facet normal  0.000000e+00 -0.000000e+00  1.000000e+00
    outer loop
      vertex   8.485000e+00  4.899000e+00  0.000000e+00
      vertex   8.485000e+00  1.469700e+01  0.000000e+00
      vertex   0.000000e+00  9.798000e+00  0.000000e+00
    endloop
  endfacet
  facet normal  0.000000e+00  0.000000e+00  1.000000e+00
    outer loop
      vertex   8.485000e+00  1.469700e+01  0.000000e+00
      vertex   8.485000e+00  4.899000e+00  0.000000e+00
      vertex   1.697100e+01  9.798000e+00  0.000000e+00
    endloop
  endfacet
  facet normal -0.000000e+00  0.000000e+00  1.000000e+00
    outer loop
      vertex   1.697100e+01  1.959600e+01  0.000000e+00
      vertex   2.545600e+01  1.469700e+01  0.000000e+00
      vertex   2.545600e+01  2.449500e+01  0.000000e+00
    endloop
  endfacet
  facet normal  0.000000e+00  0.000000e+00  1.000000e+00
    outer loop
      vertex   2.545600e+01  1.469700e+01  0.000000e+00
      vertex   1.697100e+01  1.959600e+01  0.000000e+00
      vertex   1.697100e+01  9.798000e+00  0.000000e+00
    endloop
  endfacet
  facet normal  0.000000e+00  0.000000e+00  1.000000e+00
    outer loop
      vertex   3.394100e+01  1.959600e+01  0.000000e+00
      vertex   2.545600e+01  1.469700e+01  0.000000e+00
      vertex   3.394100e+01  9.798000e+00  0.000000e+00
    endloop
  endfacet
  facet normal  0.000000e+00  0.000000e+00  1.000000e+00
    outer loop
      vertex   2.545600e+01  1.469700e+01  0.000000e+00
      vertex   3.394100e+01  1.959600e+01  0.000000e+00
      vertex   2.545600e+01  2.449500e+01  0.000000e+00
    endloop
  endfacet
  facet normal  0.000000e+00 -0.000000e+00  1.000000e+00
    outer loop
      vertex   2.545600e+01  4.899000e+00  0.000000e+00
      vertex   2.545600e+01  1.469700e+01  0.000000e+00
      vertex   1.697100e+01  9.798000e+00  0.000000e+00
    endloop
  endfacet
  facet normal  0.000000e+00  0.000000e+00  1.000000e+00
    outer loop
      vertex   2.545600e+01  1.469700e+01  0.000000e+00
      vertex   2.545600e+01  4.899000e+00  0.000000e+00
      vertex   3.394100e+01  9.798000e+00  0.000000e+00
    endloop
  endfacet
  facet normal -0.000000e+00  0.000000e+00  1.000000e+00
    outer loop
      vertex  -2.545600e+01  3.429300e+01  0.000000e+00
      vertex  -1.697100e+01  2.939400e+01  0.000000e+00
      vertex  -1.697100e+01  3.919200e+01  0.000000e+00
    endloop
  endfacet
  facet normal  0.000000e+00  0.000000e+00  1.000000e+00
    outer loop
      vertex  -1.697100e+01  2.939400e+01  0.000000e+00
      vertex  -2.545600e+01  3.429300e+01  0.000000e+00
      vertex  -2.545600e+01  2.449500e+01  0.000000e+00
    endloop
  endfacet
  facet normal  0.000000e+00  0.000000e+00  1.000000e+00
    outer loop
      vertex  -8.485000e+00  3.429300e+01  0.000000e+00
      vertex  -1.697100e+01  2.939400e+01  0.000000e+00
      vertex  -8.485000e+00  2.449500e+01  0.000000e+00
    endloop
  endfacet
  facet normal  0.000000e+00  0.000000e+00  1.000000e+00
    outer loop
      vertex  -1.697100e+01  2.939400e+01  0.000000e+00
      vertex  -8.485000e+00  3.429300e+01  0.000000e+00
      vertex  -1.697100e+01  3.919200e+01  0.000000e+00
    endloop
  endfacet
  facet normal  0.000000e+00 -0.000000e+00  1.000000e+00
    outer loop
      vertex  -1.697100e+01  1.959600e+01  0.000000e+00
      vertex  -1.697100e+01  2.939400e+01  0.000000e+00
      vertex  -2.545600e+01  2.449500e+01  0.000000e+00
    endloop
  endfacet
  facet normal  0.000000e+00  0.000000e+00  1.000000e+00
    outer loop
      vertex  -1.697100e+01  2.939400e+01  0.000000e+00
      vertex  -1.697100e+01  1.959600e+01  0.000000e+00
      vertex  -8.485000e+00  2.449500e+01  0.000000e+00
    endloop
  endfacet
  facet normal -0.000000e+00  0.000000e+00  1.000000e+00
    outer loop
      vertex  -8.485000e+00  3.429300e+01  0.000000e+00
      vertex  -0.000000e+00  2.939400e+01  0.000000e+00
      vertex   0.000000e+00  3.919200e+01  0.000000e+00
    endloop
  endfacet
  facet normal  0.000000e+00  0.000000e+00  1.000000e+00
    outer loop
      vertex  -0.000000e+00  2.939400e+01  0.000000e+00
      vertex  -8.485000e+00  3.429300e+01  0.000000e+00
      vertex  -8.485000e+00  2.449500e+01  0.000000e+00
    endloop
  endfacet
  facet normal  0.000000e+00  0.000000e+00  1.000000e+00
    outer loop
      vertex   8.485000e+00  3.429300e+01  0.000000e+00
      vertex  -0.000000e+00  2.939400e+01  0.000000e+00
      vertex   8.485000e+00  2.449500e+01  0.000000e+00
    endloop
  endfacet
  facet normal  0.000000e+00  0.000000e+00  1.000000e+00
    outer loop
      vertex  -0.000000e+00  2.939400e+01  0.000000e+00
      vertex   8.485000e+00  3.429300e+01  0.000000e+00
      vertex   0.000000e+00  3.919200e+01  0.000000e+00
    endloop
  endfacet
  facet normal  0.000000e+00  0.000000e+00  1.000000e+00
    outer loop
      vertex   0.000000e+00  1.959600e+01  0.000000e+00
      vertex  -0.000000e+00  2.939400e+01  0.000000e+00
      vertex  -8.485000e+00  2.449500e+01  0.000000e+00
    endloop
  endfacet
  facet normal  0.000000e+00  0.000000e+00  1.000000e+00
    outer loop
      vertex  -0.000000e+00  2.939400e+01  0.000000e+00
      vertex   0.000000e+00  1.959600e+01  0.000000e+00
      vertex   8.485000e+00  2.449500e+01  0.000000e+00
    endloop
  endfacet
  facet normal -0.000000e+00  0.000000e+00  1.000000e+00
    outer loop
      vertex   8.485000e+00  3.429300e+01  0.000000e+00
      vertex   1.697100e+01  2.939400e+01  0.000000e+00
      vertex   1.697100e+01  3.919200e+01  0.000000e+00
    endloop
  endfacet
  facet normal  0.000000e+00  0.000000e+00  1.000000e+00
    outer loop
      vertex   1.697100e+01  2.939400e+01  0.000000e+00
      vertex   8.485000e+00  3.429300e+01  0.000000e+00
      vertex   8.485000e+00  2.449500e+01  0.000000e+00
    endloop
  endfacet
  facet normal  0.000000e+00  0.000000e+00  1.000000e+00
    outer loop
      vertex   2.545600e+01  3.429300e+01  0.000000e+00
      vertex   1.697100e+01  2.939400e+01  0.000000e+00
      vertex   2.545600e+01  2.449500e+01  0.000000e+00
    endloop
  endfacet
  facet normal  0.000000e+00  0.000000e+00  1.000000e+00
    outer loop
      vertex   1.697100e+01  2.939400e+01  0.000000e+00
      vertex   2.545600e+01  3.429300e+01  0.000000e+00
      vertex   1.697100e+01  3.919200e+01  0.000000e+00
    endloop
  endfacet
  facet normal  0.000000e+00 -0.000000e+00  1.000000e+00
    outer loop
      vertex   1.697100e+01  1.959600e+01  0.000000e+00
      vertex   1.697100e+01  2.939400e+01  0.000000e+00
      vertex   8.485000e+00  2.449500e+01  0.000000e+00
    endloop
  endfacet
  facet normal  0.000000e+00  0.000000e+00  1.000000e+00
    outer loop
      vertex   1.697100e+01  2.939400e+01  0.000000e+00
      vertex   1.697100e+01  1.959600e+01  0.000000e+00
      vertex   2.545600e+01  2.449500e+01  0.000000e+00
    endloop
  endfacet
  facet normal  5.000029e-01 -2.886660e-01  8.164980e-01
    outer loop
      vertex  -2.545600e+01 -2.449500e+01  6.928000e+00
      vertex  -1.697100e+01 -2.939400e+01  0.000000e+00
      vertex  -1.697100e+01 -1.959600e+01  3.464000e+00
    endloop
  endfacet
  facet normal  5.000029e-01 -2.886660e-01  8.164980e-01
    outer loop
      vertex  -1.697100e+01 -2.939400e+01  0.000000e+00
      vertex  -2.545600e+01 -2.449500e+01  6.928000e+00
      vertex  -2.545600e+01 -3.429300e+01  3.464000e+00
    endloop
  endfacet
  facet normal -4.999586e-01 -2.886745e-01  8.165221e-01
    outer loop
      vertex  -8.485000e+00 -2.449500e+01  6.928000e+00
      vertex  -1.697100e+01 -2.939400e+01  0.000000e+00
      vertex  -8.485000e+00 -3.429300e+01  3.464000e+00
    endloop
  endfacet
  facet normal -4.999586e-01 -2.886745e-01  8.165221e-01
    outer loop
      vertex  -1.697100e+01 -2.939400e+01  0.000000e+00
      vertex  -8.485000e+00 -2.449500e+01  6.928000e+00
      vertex  -1.697100e+01 -1.959600e+01  3.464000e+00
    endloop
  endfacet
  facet normal  3.746537e-08  5.773373e-01  8.165058e-01
    outer loop
      vertex  -1.697100e+01 -3.919200e+01  6.928000e+00
      vertex  -1.697100e+01 -2.939400e+01  0.000000e+00
      vertex  -2.545600e+01 -3.429300e+01  3.464000e+00
    endloop
  endfacet
  facet normal -7.492189e-08  5.773373e-01  8.165058e-01
    outer loop
      vertex  -1.697100e+01 -2.939400e+01  0.000000e+00
      vertex  -1.697100e+01 -3.919200e+01  6.928000e+00
      vertex  -8.485000e+00 -3.429300e+01  3.464000e+00
    endloop
  endfacet
  facet normal  5.000029e-01 -2.886660e-01  8.164981e-01
    outer loop
      vertex  -8.485000e+00 -2.449500e+01  6.928000e+00
      vertex  -0.000000e+00 -2.939400e+01  0.000000e+00
      vertex   0.000000e+00 -1.959600e+01  3.464000e+00
    endloop
  endfacet
  facet normal  5.000029e-01 -2.886660e-01  8.164981e-01
    outer loop
      vertex  -0.000000e+00 -2.939400e+01  0.000000e+00
      vertex  -8.485000e+00 -2.449500e+01  6.928000e+00
      vertex  -8.485000e+00 -3.429300e+01  3.464000e+00
    endloop
  endfacet
  facet normal -5.000029e-01 -2.886660e-01  8.164981e-01
    outer loop
      vertex   8.485000e+00 -2.449500e+01  6.928000e+00
      vertex  -0.000000e+00 -2.939400e+01  0.000000e+00
      vertex   8.485000e+00 -3.429300e+01  3.464000e+00
    endloop
  endfacet
  facet normal -5.000029e-01 -2.886660e-01  8.164981e-01
    outer loop
      vertex  -0.000000e+00 -2.939400e+01  0.000000e+00
      vertex   8.485000e+00 -2.449500e+01  6.928000e+00
      vertex   0.000000e+00 -1.959600e+01  3.464000e+00
    endloop
  endfacet
  facet normal  3.746537e-08  5.773373e-01  8.165058e-01
    outer loop
      vertex  -0.000000e+00 -3.919200e+01  6.928000e+00
      vertex  -0.000000e+00 -2.939400e+01  0.000000e+00
      vertex  -8.485000e+00 -3.429300e+01  3.464000e+00
    endloop
  endfacet
  facet normal -7.493073e-08  5.773373e-01  8.165058e-01
    outer loop
      vertex  -0.000000e+00 -2.939400e+01  0.000000e+00
      vertex  -0.000000e+00 -3.919200e+01  6.928000e+00
      vertex   8.485000e+00 -3.429300e+01  3.464000e+00
    endloop
  endfacet
  facet normal  4.999586e-01 -2.886745e-01  8.165221e-01
    outer loop
      vertex   8.485000e+00 -2.449500e+01  6.928000e+00
      vertex   1.697100e+01 -2.939400e+01  0.000000e+00
      vertex   1.697100e+01 -1.959600e+01  3.464000e+00
    endloop
  endfacet
  facet normal  4.999586e-01 -2.886745e-01  8.165221e-01
    outer loop
      vertex   1.697100e+01 -2.939400e+01  0.000000e+00
      vertex   8.485000e+00 -2.449500e+01  6.928000e+00
      vertex   8.485000e+00 -3.429300e+01  3.464000e+00
    endloop
  endfacet
  facet normal -5.000029e-01 -2.886660e-01  8.164980e-01
    outer loop
      vertex   2.545600e+01 -2.449500e+01  6.928000e+00
      vertex   1.697100e+01 -2.939400e+01  0.000000e+00
      vertex   2.545600e+01 -3.429300e+01  3.464000e+00
    endloop
  endfacet
  facet normal -5.000029e-01 -2.886660e-01  8.164980e-01
    outer loop
      vertex   1.697100e+01 -2.939400e+01  0.000000e+00
      vertex   2.545600e+01 -2.449500e+01  6.928000e+00
      vertex   1.697100e+01 -1.959600e+01  3.464000e+00
    endloop
  endfacet
  facet normal  3.746095e-08  5.773373e-01  8.165058e-01
    outer loop
      vertex   1.697100e+01 -3.919200e+01  6.928000e+00
      vertex   1.697100e+01 -2.939400e+01  0.000000e+00
      vertex   8.485000e+00 -3.429300e+01  3.464000e+00
    endloop
  endfacet
  facet normal -7.493074e-08  5.773373e-01  8.165058e-01
    outer loop
      vertex   1.697100e+01 -2.939400e+01  0.000000e+00
      vertex   1.697100e+01 -3.919200e+01  6.928000e+00
      vertex   2.545600e+01 -3.429300e+01  3.464000e+00
    endloop
  endfacet
  facet normal  5.000027e-01 -2.886660e-01  8.164981e-01
    outer loop
      vertex  -3.394100e+01 -9.798000e+00  6.928000e+00
      vertex  -2.545600e+01 -1.469700e+01  0.000000e+00
      vertex  -2.545600e+01 -4.899000e+00  3.464000e+00
    endloop
  endfacet
  facet normal  5.000028e-01 -2.886660e-01  8.164981e-01
    outer loop
      vertex  -2.545600e+01 -1.469700e+01  0.000000e+00
      vertex  -3.394100e+01 -9.798000e+00  6.928000e+00
      vertex  -3.394100e+01 -1.959600e+01  3.464000e+00
    endloop
  endfacet
  facet normal -5.000030e-01 -2.886660e-01  8.164980e-01
    outer loop
      vertex  -1.697100e+01 -9.798000e+00  6.928000e+00
      vertex  -2.545600e+01 -1.469700e+01  0.000000e+00
      vertex  -1.697100e+01 -1.959600e+01  3.464000e+00
    endloop
  endfacet
  facet normal -5.000029e-01 -2.886660e-01  8.164980e-01
    outer loop
      vertex  -2.545600e+01 -1.469700e+01  0.000000e+00
      vertex  -1.697100e+01 -9.798000e+00  6.928000e+00
      vertex  -2.545600e+01 -4.899000e+00  3.464000e+00
    endloop
  endfacet
  facet normal -3.746536e-08  5.773373e-01  8.165058e-01
    outer loop
      vertex  -2.545600e+01 -2.449500e+01  6.928000e+00
      vertex  -2.545600e+01 -1.469700e+01  0.000000e+00
      vertex  -3.394100e+01 -1.959600e+01  3.464000e+00
    endloop
  endfacet
  facet normal  3.746537e-08  5.773373e-01  8.165057e-01
    outer loop
      vertex  -2.545600e+01 -1.469700e+01  0.000000e+00
      vertex  -2.545600e+01 -2.449500e+01  6.928000e+00
      vertex  -1.697100e+01 -1.959600e+01  3.464000e+00
    endloop
  endfacet
  facet normal  4.999586e-01 -2.886745e-01  8.165222e-01
    outer loop
      vertex  -1.697100e+01 -9.798000e+00  6.928000e+00
      vertex  -8.485000e+00 -1.469700e+01  0.000000e+00
      vertex  -8.485000e+00 -4.899000e+00  3.464000e+00
    endloop
  endfacet
  facet normal  4.999586e-01 -2.886745e-01  8.165222e-01
    outer loop
      vertex  -8.485000e+00 -1.469700e+01  0.000000e+00
      vertex  -1.697100e+01 -9.798000e+00  6.928000e+00
      vertex  -1.697100e+01 -1.959600e+01  3.464000e+00
    endloop
  endfacet
  facet normal -5.000029e-01 -2.886660e-01  8.164980e-01
    outer loop
      vertex   0.000000e+00 -9.798000e+00  6.928000e+00
      vertex  -8.485000e+00 -1.469700e+01  0.000000e+00
      vertex   0.000000e+00 -1.959600e+01  3.464000e+00
    endloop
  endfacet
  facet normal -5.000029e-01 -2.886660e-01  8.164980e-01
    outer loop
      vertex  -8.485000e+00 -1.469700e+01  0.000000e+00
      vertex   0.000000e+00 -9.798000e+00  6.928000e+00
      vertex  -8.485000e+00 -4.899000e+00  3.464000e+00
    endloop
  endfacet
  facet normal -3.746095e-08  5.773373e-01  8.165057e-01
    outer loop
      vertex  -8.485000e+00 -2.449500e+01  6.928000e+00
      vertex  -8.485000e+00 -1.469700e+01  0.000000e+00
      vertex  -1.697100e+01 -1.959600e+01  3.464000e+00
    endloop
  endfacet
  facet normal  3.746537e-08  5.773373e-01  8.165057e-01
    outer loop
      vertex  -8.485000e+00 -1.469700e+01  0.000000e+00
      vertex  -8.485000e+00 -2.449500e+01  6.928000e+00
      vertex   0.000000e+00 -1.959600e+01  3.464000e+00
    endloop
  endfacet
  facet normal  5.000029e-01 -2.886660e-01  8.164980e-01
    outer loop
      vertex   0.000000e+00 -9.798000e+00  6.928000e+00
      vertex   8.485000e+00 -1.469700e+01  0.000000e+00
      vertex   8.485000e+00 -4.899000e+00  3.464000e+00
    endloop
  endfacet
  facet normal  5.000029e-01 -2.886660e-01  8.164980e-01
    outer loop
      vertex   8.485000e+00 -1.469700e+01  0.000000e+00
      vertex   0.000000e+00 -9.798000e+00  6.928000e+00
      vertex   0.000000e+00 -1.959600e+01  3.464000e+00
    endloop
  endfacet
  facet normal -4.999586e-01 -2.886745e-01  8.165222e-01
    outer loop
      vertex   1.697100e+01 -9.798000e+00  6.928000e+00
      vertex   8.485000e+00 -1.469700e+01  0.000000e+00
      vertex   1.697100e+01 -1.959600e+01  3.464000e+00
    endloop
  endfacet
  facet normal -4.999586e-01 -2.886745e-01  8.165222e-01
    outer loop
      vertex   8.485000e+00 -1.469700e+01  0.000000e+00
      vertex   1.697100e+01 -9.798000e+00  6.928000e+00
      vertex   8.485000e+00 -4.899000e+00  3.464000e+00
    endloop
  endfacet
  facet normal -3.746537e-08  5.773373e-01  8.165057e-01
    outer loop
      vertex   8.485000e+00 -2.449500e+01  6.928000e+00
      vertex   8.485000e+00 -1.469700e+01  0.000000e+00
      vertex   0.000000e+00 -1.959600e+01  3.464000e+00
    endloop
  endfacet
  facet normal  3.746095e-08  5.773373e-01  8.165057e-01
    outer loop
      vertex   8.485000e+00 -1.469700e+01  0.000000e+00
      vertex   8.485000e+00 -2.449500e+01  6.928000e+00
      vertex   1.697100e+01 -1.959600e+01  3.464000e+00
    endloop
  endfacet
  facet normal  5.000029e-01 -2.886660e-01  8.164980e-01
    outer loop
      vertex   1.697100e+01 -9.798000e+00  6.928000e+00
      vertex   2.545600e+01 -1.469700e+01  0.000000e+00
      vertex   2.545600e+01 -4.899000e+00  3.464000e+00
    endloop
  endfacet
  facet normal  5.000030e-01 -2.886660e-01  8.164980e-01
    outer loop
      vertex   2.545600e+01 -1.469700e+01  0.000000e+00
      vertex   1.697100e+01 -9.798000e+00  6.928000e+00
      vertex   1.697100e+01 -1.959600e+01  3.464000e+00
    endloop
  endfacet
  facet normal -5.000028e-01 -2.886660e-01  8.164981e-01
    outer loop
      vertex   3.394100e+01 -9.798000e+00  6.928000e+00
      vertex   2.545600e+01 -1.469700e+01  0.000000e+00
      vertex   3.394100e+01 -1.959600e+01  3.464000e+00
    endloop
  endfacet
  facet normal -5.000027e-01 -2.886660e-01  8.164981e-01
    outer loop
      vertex   2.545600e+01 -1.469700e+01  0.000000e+00
      vertex   3.394100e+01 -9.798000e+00  6.928000e+00
      vertex   2.545600e+01 -4.899000e+00  3.464000e+00
    endloop
  endfacet
  facet normal -3.746537e-08  5.773373e-01  8.165057e-01
    outer loop
      vertex   2.545600e+01 -2.449500e+01  6.928000e+00
      vertex   2.545600e+01 -1.469700e+01  0.000000e+00
      vertex   1.697100e+01 -1.959600e+01  3.464000e+00
    endloop
  endfacet
  facet normal  3.746536e-08  5.773373e-01  8.165058e-01
    outer loop
      vertex   2.545600e+01 -1.469700e+01  0.000000e+00
      vertex   2.545600e+01 -2.449500e+01  6.928000e+00
      vertex   3.394100e+01 -1.959600e+01  3.464000e+00
    endloop
  endfacet
  facet normal  5.000030e-01 -2.886660e-01  8.164980e-01
    outer loop
      vertex  -4.242600e+01  4.899000e+00  6.928000e+00
      vertex  -3.394100e+01  0.000000e+00  0.000000e+00
      vertex  -3.394100e+01  9.798000e+00  3.464000e+00
    endloop
  endfacet
  facet normal  5.000030e-01 -2.886660e-01  8.164980e-01
    outer loop
      vertex  -3.394100e+01  0.000000e+00  0.000000e+00
      vertex  -4.242600e+01  4.899000e+00  6.928000e+00
      vertex  -4.242600e+01 -4.899000e+00  3.464000e+00
    endloop
  endfacet
  facet normal -5.000027e-01 -2.886660e-01  8.164982e-01
    outer loop
      vertex  -2.545600e+01  4.899000e+00  6.928000e+00
      vertex  -3.394100e+01  0.000000e+00  0.000000e+00
      vertex  -2.545600e+01 -4.899000e+00  3.464000e+00
    endloop
  endfacet
  facet normal -5.000027e-01 -2.886660e-01  8.164982e-01
    outer loop
      vertex  -3.394100e+01  0.000000e+00  0.000000e+00
      vertex  -2.545600e+01  4.899000e+00  6.928000e+00
      vertex  -3.394100e+01  9.798000e+00  3.464000e+00
    endloop
  endfacet
  facet normal  0.000000e+00  5.773374e-01  8.165057e-01
    outer loop
      vertex  -3.394100e+01 -9.798000e+00  6.928000e+00
      vertex  -3.394100e+01  0.000000e+00  0.000000e+00
      vertex  -4.242600e+01 -4.899000e+00  3.464000e+00
    endloop
  endfacet
  facet normal  0.000000e+00  5.773373e-01  8.165057e-01
    outer loop
      vertex  -3.394100e+01  0.000000e+00  0.000000e+00
      vertex  -3.394100e+01 -9.798000e+00  6.928000e+00
      vertex  -2.545600e+01 -4.899000e+00  3.464000e+00
    endloop
  endfacet
  facet normal  5.000029e-01 -2.886660e-01  8.164980e-01
    outer loop
      vertex  -2.545600e+01  4.899000e+00  6.928000e+00
      vertex  -1.697100e+01  0.000000e+00  0.000000e+00
      vertex  -1.697100e+01  9.798000e+00  3.464000e+00
    endloop
  endfacet
  facet normal  5.000029e-01 -2.886660e-01  8.164980e-01
    outer loop
      vertex  -1.697100e+01  0.000000e+00  0.000000e+00
      vertex  -2.545600e+01  4.899000e+00  6.928000e+00
      vertex  -2.545600e+01 -4.899000e+00  3.464000e+00
    endloop
  endfacet
  facet normal -4.999586e-01 -2.886745e-01  8.165222e-01
    outer loop
      vertex  -8.485000e+00  4.899000e+00  6.928000e+00
      vertex  -1.697100e+01  0.000000e+00  0.000000e+00
      vertex  -8.485000e+00 -4.899000e+00  3.464000e+00
    endloop
  endfacet
  facet normal -4.999586e-01 -2.886745e-01  8.165222e-01
    outer loop
      vertex  -1.697100e+01  0.000000e+00  0.000000e+00
      vertex  -8.485000e+00  4.899000e+00  6.928000e+00
      vertex  -1.697100e+01  9.798000e+00  3.464000e+00
    endloop
  endfacet
  facet normal  0.000000e+00  5.773373e-01  8.165057e-01
    outer loop
      vertex  -1.697100e+01 -9.798000e+00  6.928000e+00
      vertex  -1.697100e+01  0.000000e+00  0.000000e+00
      vertex  -2.545600e+01 -4.899000e+00  3.464000e+00
    endloop
  endfacet
  facet normal  0.000000e+00  5.773373e-01  8.165057e-01
    outer loop
      vertex  -1.697100e+01  0.000000e+00  0.000000e+00
      vertex  -1.697100e+01 -9.798000e+00  6.928000e+00
      vertex  -8.485000e+00 -4.899000e+00  3.464000e+00
    endloop
  endfacet
  facet normal  5.000028e-01 -2.886660e-01  8.164980e-01
    outer loop
      vertex  -8.485000e+00  4.899000e+00  6.928000e+00
      vertex  -0.000000e+00  0.000000e+00  0.000000e+00
      vertex   0.000000e+00  9.798000e+00  3.464000e+00
    endloop
  endfacet
  facet normal  5.000028e-01 -2.886660e-01  8.164980e-01
    outer loop
      vertex  -0.000000e+00  0.000000e+00  0.000000e+00
      vertex  -8.485000e+00  4.899000e+00  6.928000e+00
      vertex  -8.485000e+00 -4.899000e+00  3.464000e+00
    endloop
  endfacet
  facet normal -5.000028e-01 -2.886660e-01  8.164980e-01
    outer loop
      vertex   8.485000e+00  4.899000e+00  6.928000e+00
      vertex  -0.000000e+00  0.000000e+00  0.000000e+00
      vertex   8.485000e+00 -4.899000e+00  3.464000e+00
    endloop
  endfacet
  facet normal -5.000028e-01 -2.886660e-01  8.164980e-01
    outer loop
      vertex  -0.000000e+00  0.000000e+00  0.000000e+00
      vertex   8.485000e+00  4.899000e+00  6.928000e+00
      vertex   0.000000e+00  9.798000e+00  3.464000e+00
    endloop
  endfacet
  facet normal  0.000000e+00  5.773374e-01  8.165058e-01
    outer loop
      vertex   0.000000e+00 -9.798000e+00  6.928000e+00
      vertex  -0.000000e+00  0.000000e+00  0.000000e+00
      vertex  -8.485000e+00 -4.899000e+00  3.464000e+00
    endloop
  endfacet
  facet normal  0.000000e+00  5.773374e-01  8.165058e-01
    outer loop
      vertex  -0.000000e+00  0.000000e+00  0.000000e+00
      vertex   0.000000e+00 -9.798000e+00  6.928000e+00
      vertex   8.485000e+00 -4.899000e+00  3.464000e+00
    endloop
  endfacet
  facet normal  4.999586e-01 -2.886745e-01  8.165222e-01
    outer loop
      vertex   8.485000e+00  4.899000e+00  6.928000e+00
      vertex   1.697100e+01  0.000000e+00  0.000000e+00
      vertex   1.697100e+01  9.798000e+00  3.464000e+00
    endloop
  endfacet
  facet normal  4.999586e-01 -2.886745e-01  8.165222e-01
    outer loop
      vertex   1.697100e+01  0.000000e+00  0.000000e+00
      vertex   8.485000e+00  4.899000e+00  6.928000e+00
      vertex   8.485000e+00 -4.899000e+00  3.464000e+00
    endloop
  endfacet
  facet normal -5.000029e-01 -2.886660e-01  8.164980e-01
    outer loop
      vertex   2.545600e+01  4.899000e+00  6.928000e+00
      vertex   1.697100e+01  0.000000e+00  0.000000e+00
      vertex   2.545600e+01 -4.899000e+00  3.464000e+00
    endloop
  endfacet
  facet normal -5.000029e-01 -2.886660e-01  8.164980e-01
    outer loop
      vertex   1.697100e+01  0.000000e+00  0.000000e+00
      vertex   2.545600e+01  4.899000e+00  6.928000e+00
      vertex   1.697100e+01  9.798000e+00  3.464000e+00
    endloop
  endfacet
  facet normal  0.000000e+00  5.773373e-01  8.165057e-01
    outer loop
      vertex   1.697100e+01 -9.798000e+00  6.928000e+00
      vertex   1.697100e+01  0.000000e+00  0.000000e+00
      vertex   8.485000e+00 -4.899000e+00  3.464000e+00
    endloop
  endfacet
  facet normal  0.000000e+00  5.773373e-01  8.165057e-01
    outer loop
      vertex   1.697100e+01  0.000000e+00  0.000000e+00
      vertex   1.697100e+01 -9.798000e+00  6.928000e+00
      vertex   2.545600e+01 -4.899000e+00  3.464000e+00
    endloop
  endfacet
  facet normal  5.000027e-01 -2.886660e-01  8.164982e-01
    outer loop
      vertex   2.545600e+01  4.899000e+00  6.928000e+00
      vertex   3.394100e+01  0.000000e+00  0.000000e+00
      vertex   3.394100e+01  9.798000e+00  3.464000e+00
    endloop
  endfacet
  facet normal  5.000027e-01 -2.886660e-01  8.164982e-01
    outer loop
      vertex   3.394100e+01  0.000000e+00  0.000000e+00
      vertex   2.545600e+01  4.899000e+00  6.928000e+00
      vertex   2.545600e+01 -4.899000e+00  3.464000e+00
    endloop
  endfacet
  facet normal -5.000030e-01 -2.886660e-01  8.164980e-01
    outer loop
      vertex   4.242600e+01  4.899000e+00  6.928000e+00
      vertex   3.394100e+01  0.000000e+00  0.000000e+00
      vertex   4.242600e+01 -4.899000e+00  3.464000e+00
    endloop
  endfacet
  facet normal -5.000030e-01 -2.886660e-01  8.164980e-01
    outer loop
      vertex   3.394100e+01  0.000000e+00  0.000000e+00
      vertex   4.242600e+01  4.899000e+00  6.928000e+00
      vertex   3.394100e+01  9.798000e+00  3.464000e+00
    endloop
  endfacet
  facet normal  0.000000e+00  5.773373e-01  8.165057e-01
    outer loop
      vertex   3.394100e+01 -9.798000e+00  6.928000e+00
      vertex   3.394100e+01  0.000000e+00  0.000000e+00
      vertex   2.545600e+01 -4.899000e+00  3.464000e+00
    endloop
  endfacet
  facet normal  0.000000e+00  5.773374e-01  8.165057e-01
    outer loop
      vertex   3.394100e+01  0.000000e+00  0.000000e+00
      vertex   3.394100e+01 -9.798000e+00  6.928000e+00
      vertex   4.242600e+01 -4.899000e+00  3.464000e+00
    endloop
  endfacet
  facet normal  5.000028e-01 -2.886660e-01  8.164982e-01
    outer loop
      vertex  -3.394100e+01  1.959600e+01  6.928000e+00
      vertex  -2.545600e+01  1.469700e+01  0.000000e+00
      vertex  -2.545600e+01  2.449500e+01  3.464000e+00
    endloop
  endfacet
  facet normal  5.000027e-01 -2.886660e-01  8.164982e-01
    outer loop
      vertex  -2.545600e+01  1.469700e+01  0.000000e+00
      vertex  -3.394100e+01  1.959600e+01  6.928000e+00
      vertex  -3.394100e+01  9.798000e+00  3.464000e+00
    endloop
  endfacet
  facet normal -5.000029e-01 -2.886660e-01  8.164980e-01
    outer loop
      vertex  -1.697100e+01  1.959600e+01  6.928000e+00
      vertex  -2.545600e+01  1.469700e+01  0.000000e+00
      vertex  -1.697100e+01  9.798000e+00  3.464000e+00
    endloop
  endfacet
  facet normal -5.000029e-01 -2.886659e-01  8.164980e-01
    outer loop
      vertex  -2.545600e+01  1.469700e+01  0.000000e+00
      vertex  -1.697100e+01  1.959600e+01  6.928000e+00
      vertex  -2.545600e+01  2.449500e+01  3.464000e+00
    endloop
  endfacet
  facet normal  3.746536e-08  5.773374e-01  8.165057e-01
    outer loop
      vertex  -2.545600e+01  4.899000e+00  6.928000e+00
      vertex  -2.545600e+01  1.469700e+01  0.000000e+00
      vertex  -3.394100e+01  9.798000e+00  3.464000e+00
    endloop
  endfacet
  facet normal -3.746538e-08  5.773374e-01  8.165057e-01
    outer loop
      vertex  -2.545600e+01  1.469700e+01  0.000000e+00
      vertex  -2.545600e+01  4.899000e+00  6.928000e+00
      vertex  -1.697100e+01  9.798000e+00  3.464000e+00
    endloop
  endfacet
  facet normal  4.999586e-01 -2.886745e-01  8.165222e-01
    outer loop
      vertex  -1.697100e+01  1.959600e+01  6.928000e+00
      vertex  -8.485000e+00  1.469700e+01  0.000000e+00
      vertex  -8.485000e+00  2.449500e+01  3.464000e+00
    endloop
  endfacet
  facet normal  4.999586e-01 -2.886745e-01  8.165222e-01
    outer loop
      vertex  -8.485000e+00  1.469700e+01  0.000000e+00
      vertex  -1.697100e+01  1.959600e+01  6.928000e+00
      vertex  -1.697100e+01  9.798000e+00  3.464000e+00
    endloop
  endfacet
  facet normal -5.000028e-01 -2.886660e-01  8.164980e-01
    outer loop
      vertex   0.000000e+00  1.959600e+01  6.928000e+00
      vertex  -8.485000e+00  1.469700e+01  0.000000e+00
      vertex   0.000000e+00  9.798000e+00  3.464000e+00
    endloop
  endfacet
  facet normal -5.000029e-01 -2.886660e-01  8.164981e-01
    outer loop
      vertex  -8.485000e+00  1.469700e+01  0.000000e+00
      vertex   0.000000e+00  1.959600e+01  6.928000e+00
      vertex  -8.485000e+00  2.449500e+01  3.464000e+00
    endloop
  endfacet
  facet normal  3.746095e-08  5.773374e-01  8.165057e-01
    outer loop
      vertex  -8.485000e+00  4.899000e+00  6.928000e+00
      vertex  -8.485000e+00  1.469700e+01  0.000000e+00
      vertex  -1.697100e+01  9.798000e+00  3.464000e+00
    endloop
  endfacet
  facet normal -3.746537e-08  5.773374e-01  8.165057e-01
    outer loop
      vertex  -8.485000e+00  1.469700e+01  0.000000e+00
      vertex  -8.485000e+00  4.899000e+00  6.928000e+00
      vertex   0.000000e+00  9.798000e+00  3.464000e+00
    endloop
  endfacet
  facet normal  5.000029e-01 -2.886660e-01  8.164981e-01
    outer loop
      vertex   0.000000e+00  1.959600e+01  6.928000e+00
      vertex   8.485000e+00  1.469700e+01  0.000000e+00
      vertex   8.485000e+00  2.449500e+01  3.464000e+00
    endloop
  endfacet
  facet normal  5.000028e-01 -2.886660e-01  8.164980e-01
    outer loop
      vertex   8.485000e+00  1.469700e+01  0.000000e+00
      vertex   0.000000e+00  1.959600e+01  6.928000e+00
      vertex   0.000000e+00  9.798000e+00  3.464000e+00
    endloop
  endfacet
  facet normal -4.999586e-01 -2.886745e-01  8.165222e-01
    outer loop
      vertex   1.697100e+01  1.959600e+01  6.928000e+00
      vertex   8.485000e+00  1.469700e+01  0.000000e+00
      vertex   1.697100e+01  9.798000e+00  3.464000e+00
    endloop
  endfacet
  facet normal -4.999586e-01 -2.886745e-01  8.165222e-01
    outer loop
      vertex   8.485000e+00  1.469700e+01  0.000000e+00
      vertex   1.697100e+01  1.959600e+01  6.928000e+00
      vertex   8.485000e+00  2.449500e+01  3.464000e+00
    endloop
  endfacet
  facet normal  3.746537e-08  5.773374e-01  8.165057e-01
    outer loop
      vertex   8.485000e+00  4.899000e+00  6.928000e+00
      vertex   8.485000e+00  1.469700e+01  0.000000e+00
      vertex   0.000000e+00  9.798000e+00  3.464000e+00
    endloop
  endfacet
  facet normal -3.746095e-08  5.773374e-01  8.165057e-01
    outer loop
      vertex   8.485000e+00  1.469700e+01  0.000000e+00
      vertex   8.485000e+00  4.899000e+00  6.928000e+00
      vertex   1.697100e+01  9.798000e+00  3.464000e+00
    endloop
  endfacet
  facet normal  5.000029e-01 -2.886659e-01  8.164980e-01
    outer loop
      vertex   1.697100e+01  1.959600e+01  6.928000e+00
      vertex   2.545600e+01  1.469700e+01  0.000000e+00
      vertex   2.545600e+01  2.449500e+01  3.464000e+00
    endloop
  endfacet
  facet normal  5.000029e-01 -2.886660e-01  8.164980e-01
    outer loop
      vertex   2.545600e+01  1.469700e+01  0.000000e+00
      vertex   1.697100e+01  1.959600e+01  6.928000e+00
      vertex   1.697100e+01  9.798000e+00  3.464000e+00
    endloop
  endfacet
  facet normal -5.000027e-01 -2.886660e-01  8.164982e-01
    outer loop
      vertex   3.394100e+01  1.959600e+01  6.928000e+00
      vertex   2.545600e+01  1.469700e+01  0.000000e+00
      vertex   3.394100e+01  9.798000e+00  3.464000e+00
    endloop
  endfacet
  facet normal -5.000028e-01 -2.886660e-01  8.164982e-01
    outer loop
      vertex   2.545600e+01  1.469700e+01  0.000000e+00
      vertex   3.394100e+01  1.959600e+01  6.928000e+00
      vertex   2.545600e+01  2.449500e+01  3.464000e+00
    endloop
  endfacet
  facet normal  3.746538e-08  5.773374e-01  8.165057e-01
    outer loop
      vertex   2.545600e+01  4.899000e+00  6.928000e+00
      vertex   2.545600e+01  1.469700e+01  0.000000e+00
      vertex   1.697100e+01  9.798000e+00  3.464000e+00
    endloop
  endfacet
  facet normal -3.746536e-08  5.773374e-01  8.165057e-01
    outer loop
      vertex   2.545600e+01  1.469700e+01  0.000000e+00
      vertex   2.545600e+01  4.899000e+00  6.928000e+00
      vertex   3.394100e+01  9.798000e+00  3.464000e+00
    endloop
  endfacet
  facet normal  5.000030e-01 -2.886659e-01  8.164980e-01
    outer loop
      vertex  -2.545600e+01  3.429300e+01  6.928000e+00
      vertex  -1.697100e+01  2.939400e+01  0.000000e+00
      vertex  -1.697100e+01  3.919200e+01  3.464000e+00
    endloop
  endfacet
  facet normal  5.000029e-01 -2.886660e-01  8.164981e-01
    outer loop
      vertex  -1.697100e+01  2.939400e+01  0.000000e+00
      vertex  -2.545600e+01  3.429300e+01  6.928000e+00
      vertex  -2.545600e+01  2.449500e+01  3.464000e+00
    endloop
  endfacet
  facet normal -4.999585e-01 -2.886746e-01  8.165222e-01
    outer loop
      vertex  -8.485000e+00  3.429300e+01  6.928000e+00
      vertex  -1.697100e+01  2.939400e+01  0.000000e+00
      vertex  -8.485000e+00  2.449500e+01  3.464000e+00
    endloop
  endfacet
  facet normal -4.999586e-01 -2.886744e-01  8.165221e-01
    outer loop
      vertex  -1.697100e+01  2.939400e+01  0.000000e+00
      vertex  -8.485000e+00  3.429300e+01  6.928000e+00
      vertex  -1.697100e+01  3.919200e+01  3.464000e+00
    endloop
  endfacet
  facet normal  7.493076e-08  5.773374e-01  8.165057e-01
    outer loop
      vertex  -1.697100e+01  1.959600e+01  6.928000e+00
      vertex  -1.697100e+01  2.939400e+01  0.000000e+00
      vertex  -2.545600e+01  2.449500e+01  3.464000e+00
    endloop
  endfacet
  facet normal -7.492191e-08  5.773374e-01  8.165057e-01
    outer loop
      vertex  -1.697100e+01  2.939400e+01  0.000000e+00
      vertex  -1.697100e+01  1.959600e+01  6.928000e+00
      vertex  -8.485000e+00  2.449500e+01  3.464000e+00
    endloop
  endfacet
  facet normal  5.000029e-01 -2.886659e-01  8.164981e-01
    outer loop
      vertex  -8.485000e+00  3.429300e+01  6.928000e+00
      vertex  -0.000000e+00  2.939400e+01  0.000000e+00
      vertex   0.000000e+00  3.919200e+01  3.464000e+00
    endloop
  endfacet
  facet normal  5.000028e-01 -2.886660e-01  8.164981e-01
    outer loop
      vertex  -0.000000e+00  2.939400e+01  0.000000e+00
      vertex  -8.485000e+00  3.429300e+01  6.928000e+00
      vertex  -8.485000e+00  2.449500e+01  3.464000e+00
    endloop
  endfacet
  facet normal -5.000028e-01 -2.886660e-01  8.164981e-01
    outer loop
      vertex   8.485000e+00  3.429300e+01  6.928000e+00
      vertex  -0.000000e+00  2.939400e+01  0.000000e+00
      vertex   8.485000e+00  2.449500e+01  3.464000e+00
    endloop
  endfacet
  facet normal -5.000029e-01 -2.886659e-01  8.164981e-01
    outer loop
      vertex  -0.000000e+00  2.939400e+01  0.000000e+00
      vertex   8.485000e+00  3.429300e+01  6.928000e+00
      vertex   0.000000e+00  3.919200e+01  3.464000e+00
    endloop
  endfacet
  facet normal  7.493075e-08  5.773374e-01  8.165057e-01
    outer loop
      vertex   0.000000e+00  1.959600e+01  6.928000e+00
      vertex  -0.000000e+00  2.939400e+01  0.000000e+00
      vertex  -8.485000e+00  2.449500e+01  3.464000e+00
    endloop
  endfacet
  facet normal -7.493075e-08  5.773374e-01  8.165057e-01
    outer loop
      vertex  -0.000000e+00  2.939400e+01  0.000000e+00
      vertex   0.000000e+00  1.959600e+01  6.928000e+00
      vertex   8.485000e+00  2.449500e+01  3.464000e+00
    endloop
  endfacet
  facet normal  4.999586e-01 -2.886744e-01  8.165221e-01
    outer loop
      vertex   8.485000e+00  3.429300e+01  6.928000e+00
      vertex   1.697100e+01  2.939400e+01  0.000000e+00
      vertex   1.697100e+01  3.919200e+01  3.464000e+00
    endloop
  endfacet
  facet normal  4.999585e-01 -2.886746e-01  8.165222e-01
    outer loop
      vertex   1.697100e+01  2.939400e+01  0.000000e+00
      vertex   8.485000e+00  3.429300e+01  6.928000e+00
      vertex   8.485000e+00  2.449500e+01  3.464000e+00
    endloop
  endfacet
  facet normal -5.000029e-01 -2.886660e-01  8.164981e-01
    outer loop
      vertex   2.545600e+01  3.429300e+01  6.928000e+00
      vertex   1.697100e+01  2.939400e+01  0.000000e+00
      vertex   2.545600e+01  2.449500e+01  3.464000e+00
    endloop
  endfacet
  facet normal -5.000029e-01 -2.886659e-01  8.164981e-01
    outer loop
      vertex   1.697100e+01  2.939400e+01  0.000000e+00
      vertex   2.545600e+01  3.429300e+01  6.928000e+00
      vertex   1.697100e+01  3.919200e+01  3.464000e+00
    endloop
  endfacet
  facet normal  7.492191e-08  5.773374e-01  8.165057e-01
    outer loop
      vertex   1.697100e+01  1.959600e+01  6.928000e+00
      vertex   1.697100e+01  2.939400e+01  0.000000e+00
      vertex   8.485000e+00  2.449500e+01  3.464000e+00
    endloop
  endfacet
  facet normal -7.493076e-08  5.773374e-01  8.165057e-01
    outer loop
      vertex   1.697100e+01  2.939400e+01  0.000000e+00
      vertex   1.697100e+01  1.959600e+01  6.928000e+00
      vertex   2.545600e+01  2.449500e+01  3.464000e+00
    endloop
  endfacet
  facet normal -5.000142e-01  8.660172e-01  0.000000e+00
    outer loop
      vertex  -1.697100e+01  3.919200e+01  3.464000e+00
      vertex  -2.545600e+01  3.429300e+01  0.000000e+00
      vertex  -2.545600e+01  3.429300e+01  6.928000e+00
    endloop
  endfacet
  facet normal -5.000142e-01  8.660172e-01  0.000000e+00
    outer loop
      vertex  -1.697100e+01  3.919200e+01  3.464000e+00
      vertex  -1.697100e+01  3.919200e+01  0.000000e+00
      vertex  -2.545600e+01  3.429300e+01  0.000000e+00
    endloop
  endfacet
  facet normal -8.660336e-01  4.999858e-01  0.000000e+00
    outer loop
      vertex  -3.394100e+01  1.959600e+01  6.928000e+00
      vertex  -3.394100e+01  1.959600e+01  0.000000e+00
      vertex  -4.242600e+01  4.899000e+00  0.000000e+00
    endloop
  endfacet
  facet normal -8.660336e-01  4.999858e-01  0.000000e+00
    outer loop
      vertex  -3.394100e+01  1.959600e+01  6.928000e+00
      vertex  -4.242600e+01  4.899000e+00  0.000000e+00
      vertex  -4.242600e+01  4.899000e+00  6.928000e+00
    endloop
  endfacet
  facet normal -8.660334e-01  4.999861e-01  0.000000e+00
    outer loop
      vertex  -3.394100e+01  1.959600e+01  6.928000e+00
      vertex  -2.545600e+01  3.429300e+01  6.928000e+00
      vertex  -2.545600e+01  3.429300e+01  0.000000e+00
    endloop
  endfacet
  facet normal -8.660334e-01  4.999861e-01  0.000000e+00
    outer loop
      vertex  -3.394100e+01  1.959600e+01  6.928000e+00
      vertex  -2.545600e+01  3.429300e+01  0.000000e+00
      vertex  -3.394100e+01  1.959600e+01  0.000000e+00
    endloop
  endfacet
  facet normal  5.000142e-01  8.660172e-01  0.000000e+00
    outer loop
      vertex   1.697100e+01  3.919200e+01  3.464000e+00
      vertex   2.545600e+01  3.429300e+01  6.928000e+00
      vertex   2.545600e+01  3.429300e+01  0.000000e+00
    endloop
  endfacet
  facet normal  5.000142e-01  8.660172e-01  0.000000e+00
    outer loop
      vertex   1.697100e+01  3.919200e+01  3.464000e+00
      vertex   2.545600e+01  3.429300e+01  0.000000e+00
      vertex   1.697100e+01  3.919200e+01  0.000000e+00
    endloop
  endfacet
  facet normal  0.000000e+00  1.000000e+00  0.000000e+00
    outer loop
      vertex   1.697100e+01  3.919200e+01  3.464000e+00
      vertex   1.697100e+01  3.919200e+01  0.000000e+00
      vertex  -1.697100e+01  3.919200e+01  0.000000e+00
    endloop
  endfacet
  facet normal  0.000000e+00  1.000000e+00  0.000000e+00
    outer loop
      vertex   1.697100e+01  3.919200e+01  3.464000e+00
      vertex  -1.697100e+01  3.919200e+01  0.000000e+00
      vertex  -1.697100e+01  3.919200e+01  3.464000e+00
    endloop
  endfacet
  facet normal  0.000000e+00 -1.000000e+00  0.000000e+00
    outer loop
      vertex   1.697100e+01 -3.919200e+01  0.000000e+00
      vertex   1.697100e+01 -3.919200e+01  6.928000e+00
      vertex  -1.697100e+01 -3.919200e+01  6.928000e+00
    endloop
  endfacet
  facet normal  0.000000e+00 -1.000000e+00  0.000000e+00
    outer loop
      vertex   1.697100e+01 -3.919200e+01  0.000000e+00
      vertex  -1.697100e+01 -3.919200e+01  6.928000e+00
      vertex  -1.697100e+01 -3.919200e+01  0.000000e+00
    endloop
  endfacet
  facet normal -8.660334e-01 -4.999861e-01  0.000000e+00
    outer loop
      vertex  -2.545600e+01 -3.429300e+01  3.464000e+00
      vertex  -3.394100e+01 -1.959600e+01  3.464000e+00
      vertex  -3.394100e+01 -1.959600e+01  0.000000e+00
    endloop
  endfacet
  facet normal -8.660334e-01 -4.999861e-01 -0.000000e+00
    outer loop
      vertex  -2.545600e+01 -3.429300e+01  3.464000e+00
      vertex  -3.394100e+01 -1.959600e+01  0.000000e+00
      vertex  -2.545600e+01 -3.429300e+01  0.000000e+00
    endloop
  endfacet
  facet normal -5.000142e-01 -8.660172e-01 -0.000000e+00
    outer loop
      vertex  -2.545600e+01 -3.429300e+01  3.464000e+00
      vertex  -2.545600e+01 -3.429300e+01  0.000000e+00
      vertex  -1.697100e+01 -3.919200e+01  0.000000e+00
    endloop
  endfacet
  facet normal -5.000142e-01 -8.660172e-01  0.000000e+00
    outer loop
      vertex  -2.545600e+01 -3.429300e+01  3.464000e+00
      vertex  -1.697100e+01 -3.919200e+01  0.000000e+00
      vertex  -1.697100e+01 -3.919200e+01  6.928000e+00
    endloop
  endfacet
  facet normal  8.660334e-01  4.999861e-01  0.000000e+00
    outer loop
      vertex   3.394100e+01  1.959600e+01  6.928000e+00
      vertex   3.394100e+01  1.959600e+01  0.000000e+00
      vertex   2.545600e+01  3.429300e+01  0.000000e+00
    endloop
  endfacet
  facet normal  8.660334e-01  4.999861e-01  0.000000e+00
    outer loop
      vertex   3.394100e+01  1.959600e+01  6.928000e+00
      vertex   2.545600e+01  3.429300e+01  0.000000e+00
      vertex   2.545600e+01  3.429300e+01  6.928000e+00
    endloop
  endfacet
  facet normal  8.660336e-01  4.999858e-01  0.000000e+00
    outer loop
      vertex   3.394100e+01  1.959600e+01  6.928000e+00
      vertex   4.242600e+01  4.899000e+00  6.928000e+00
      vertex   4.242600e+01  4.899000e+00  0.000000e+00
    endloop
  endfacet
  facet normal  8.660336e-01  4.999858e-01  0.000000e+00
    outer loop
      vertex   3.394100e+01  1.959600e+01  6.928000e+00
      vertex   4.242600e+01  4.899000e+00  0.000000e+00
      vertex   3.394100e+01  1.959600e+01  0.000000e+00
    endloop
  endfacet
  facet normal  1.000000e+00  0.000000e+00  0.000000e+00
    outer loop
      vertex   4.242600e+01 -4.899000e+00  3.464000e+00
      vertex   4.242600e+01 -4.899000e+00  0.000000e+00
      vertex   4.242600e+01  4.899000e+00  0.000000e+00
    endloop
  endfacet
  facet normal  1.000000e+00 -0.000000e+00  0.000000e+00
    outer loop
      vertex   4.242600e+01 -4.899000e+00  3.464000e+00
      vertex   4.242600e+01  4.899000e+00  0.000000e+00
      vertex   4.242600e+01  4.899000e+00  6.928000e+00
    endloop
  endfacet
  facet normal  5.000030e-01 -2.886660e-01  8.164980e-01
    outer loop
      vertex   3.394100e+01 -9.798000e+00  6.928000e+00
      vertex   3.394100e+01 -1.959600e+01  3.464000e+00
      vertex   4.242600e+01 -4.899000e+00  3.464000e+00
    endloop
  endfacet
  facet normal  5.000142e-01 -8.660172e-01  0.000000e+00
    outer loop
      vertex   2.545600e+01 -3.429300e+01  3.464000e+00
      vertex   1.697100e+01 -3.919200e+01  0.000000e+00
      vertex   2.545600e+01 -3.429300e+01  0.000000e+00
    endloop
  endfacet
  facet normal  5.000142e-01 -8.660172e-01  0.000000e+00
    outer loop
      vertex   2.545600e+01 -3.429300e+01  3.464000e+00
      vertex   1.697100e+01 -3.919200e+01  6.928000e+00
      vertex   1.697100e+01 -3.919200e+01  0.000000e+00
    endloop
  endfacet
  facet normal  8.660334e-01 -4.999861e-01  0.000000e+00
    outer loop
      vertex   3.394100e+01 -1.959600e+01  0.000000e+00
      vertex   2.545600e+01 -3.429300e+01  3.464000e+00
      vertex   2.545600e+01 -3.429300e+01  0.000000e+00
    endloop
  endfacet
  facet normal  8.660334e-01 -4.999861e-01  0.000000e+00
    outer loop
      vertex   3.394100e+01 -1.959600e+01  0.000000e+00
      vertex   3.394100e+01 -1.959600e+01  3.464000e+00
      vertex   2.545600e+01 -3.429300e+01  3.464000e+00
    endloop
  endfacet
  facet normal  8.660336e-01 -4.999858e-01  0.000000e+00
    outer loop
      vertex   3.394100e+01 -1.959600e+01  0.000000e+00
      vertex   4.242600e+01 -4.899000e+00  3.464000e+00
      vertex   3.394100e+01 -1.959600e+01  3.464000e+00
    endloop
  endfacet
  facet normal  8.660336e-01 -4.999858e-01  0.000000e+00
    outer loop
      vertex   3.394100e+01 -1.959600e+01  0.000000e+00
      vertex   4.242600e+01 -4.899000e+00  0.000000e+00
      vertex   4.242600e+01 -4.899000e+00  3.464000e+00
    endloop
  endfacet
  facet normal -8.660336e-01 -4.999858e-01 -0.000000e+00
    outer loop
      vertex  -4.242600e+01 -4.899000e+00  3.464000e+00
      vertex  -4.242600e+01 -4.899000e+00  0.000000e+00
      vertex  -3.394100e+01 -1.959600e+01  0.000000e+00
    endloop
  endfacet
  facet normal -8.660336e-01 -4.999858e-01  0.000000e+00
    outer loop
      vertex  -4.242600e+01 -4.899000e+00  3.464000e+00
      vertex  -3.394100e+01 -1.959600e+01  0.000000e+00
      vertex  -3.394100e+01 -1.959600e+01  3.464000e+00
    endloop
  endfacet
  facet normal -5.000030e-01 -2.886660e-01  8.164980e-01
    outer loop
      vertex  -4.242600e+01 -4.899000e+00  3.464000e+00
      vertex  -3.394100e+01 -1.959600e+01  3.464000e+00
      vertex  -3.394100e+01 -9.798000e+00  6.928000e+00
    endloop
  endfacet
  facet normal -1.000000e+00  0.000000e+00  0.000000e+00
    outer loop
      vertex  -4.242600e+01 -4.899000e+00  3.464000e+00
      vertex  -4.242600e+01  4.899000e+00  6.928000e+00
      vertex  -4.242600e+01  4.899000e+00  0.000000e+00
    endloop
  endfacet
  facet normal -1.000000e+00  0.000000e+00  0.000000e+00
    outer loop
      vertex  -4.242600e+01 -4.899000e+00  3.464000e+00
      vertex  -4.242600e+01  4.899000e+00  0.000000e+00
      vertex  -4.242600e+01 -4.899000e+00  0.000000e+00
    endloop
  endfacet
  facet normal  0.000000e+00 -0.000000e+00  1.000000e+00
    outer loop
      vertex  -2.545600e+01 -3.429300e+01  0.000000e+00
      vertex  -2.545600e+01 -2.449500e+01  0.000000e+00
      vertex  -3.394100e+01 -1.959600e+01  0.000000e+00
    endloop
  endfacet
  facet normal  0.000000e+00 -0.000000e+00  1.000000e+00
    outer loop
      vertex  -3.394100e+01 -1.959600e+01  0.000000e+00
      vertex  -3.394100e+01 -9.798000e+00  0.000000e+00
      vertex  -4.242600e+01 -4.899000e+00  0.000000e+00
    endloop
  endfacet
  facet normal  0.000000e+00  0.000000e+00  1.000000e+00
    outer loop
      vertex   1.697100e+01 -3.919200e+01  0.000000e+00
      vertex   8.485000e+00 -3.429300e+01  0.000000e+00
      vertex  -0.000000e+00 -3.919200e+01  0.000000e+00
    endloop
  endfacet
  facet normal  0.000000e+00  0.000000e+00  1.000000e+00
    outer loop
      vertex  -0.000000e+00 -3.919200e+01  0.000000e+00
      vertex  -8.485000e+00 -3.429300e+01  0.000000e+00
      vertex  -1.697100e+01 -3.919200e+01  0.000000e+00
    endloop
  endfacet
  facet normal  0.000000e+00  0.000000e+00  0.000000e+00
    outer loop
      vertex   1.697100e+01 -3.919200e+01  0.000000e+00
      vertex  -0.000000e+00 -3.919200e+01  0.000000e+00
      vertex  -1.697100e+01 -3.919200e+01  0.000000e+00
    endloop
  endfacet
  facet normal  0.000000e+00  0.000000e+00  1.000000e+00
    outer loop
      vertex   4.242600e+01 -4.899000e+00  0.000000e+00
      vertex   3.394100e+01 -9.798000e+00  0.000000e+00
      vertex   3.394100e+01 -1.959600e+01  0.000000e+00
    endloop
  endfacet
  facet normal  0.000000e+00  0.000000e+00  1.000000e+00
    outer loop
      vertex   2.545600e+01 -3.429300e+01  0.000000e+00
      vertex   3.394100e+01 -1.959600e+01  0.000000e+00
      vertex   2.545600e+01 -2.449500e+01  0.000000e+00
    endloop
  endfacet
  facet normal  0.000000e+00  0.000000e+00  1.000000e+00
    outer loop
      vertex  -4.242600e+01  4.899000e+00  0.000000e+00
      vertex  -3.394100e+01  9.798000e+00  0.000000e+00
      vertex  -3.394100e+01  1.959600e+01  0.000000e+00
    endloop
  endfacet
  facet normal  0.000000e+00  0.000000e+00  1.000000e+00
    outer loop
      vertex  -2.545600e+01  3.429300e+01  0.000000e+00
      vertex  -3.394100e+01  1.959600e+01  0.000000e+00
      vertex  -2.545600e+01  2.449500e+01  0.000000e+00
    endloop
  endfacet
  facet normal  0.000000e+00  0.000000e+00  1.000000e+00
    outer loop
      vertex   2.545600e+01  3.429300e+01  0.000000e+00
      vertex   2.545600e+01  2.449500e+01  0.000000e+00
      vertex   3.394100e+01  1.959600e+01  0.000000e+00
    endloop
  endfacet
  facet normal  0.000000e+00  0.000000e+00  1.000000e+00
    outer loop
      vertex   3.394100e+01  1.959600e+01  0.000000e+00
      vertex   3.394100e+01  9.798000e+00  0.000000e+00
      vertex   4.242600e+01  4.899000e+00  0.000000e+00
    endloop
  endfacet
  facet normal -0.000000e+00  0.000000e+00  1.000000e+00
    outer loop
      vertex  -1.697100e+01  3.919200e+01  0.000000e+00
      vertex  -8.485000e+00  3.429300e+01  0.000000e+00
      vertex   0.000000e+00  3.919200e+01  0.000000e+00
    endloop
  endfacet
  facet normal -0.000000e+00  0.000000e+00  1.000000e+00
    outer loop
      vertex   0.000000e+00  3.919200e+01  0.000000e+00
      vertex   8.485000e+00  3.429300e+01  0.000000e+00
      vertex   1.697100e+01  3.919200e+01  0.000000e+00
    endloop
  endfacet
  facet normal  0.000000e+00  0.000000e+00  0.000000e+00
    outer loop
      vertex  -1.697100e+01  3.919200e+01  0.000000e+00
      vertex   0.000000e+00  3.919200e+01  0.000000e+00
      vertex   1.697100e+01  3.919200e+01  0.000000e+00
    endloop
  endfacet
  facet normal -5.000027e-01 -2.886660e-01  8.164982e-01
    outer loop
      vertex  -2.545600e+01 -2.449500e+01  6.928000e+00
      vertex  -3.394100e+01 -1.959600e+01  3.464000e+00
      vertex  -2.545600e+01 -3.429300e+01  3.464000e+00
    endloop
  endfacet
  facet normal  0.000000e+00  5.773372e-01  8.165058e-01
    outer loop
      vertex   1.697100e+01 -3.919200e+01  6.928000e+00
      vertex   8.485000e+00 -3.429300e+01  3.464000e+00
      vertex  -0.000000e+00 -3.919200e+01  6.928000e+00
    endloop
  endfacet
  facet normal  0.000000e+00  5.773372e-01  8.165058e-01
    outer loop
      vertex  -0.000000e+00 -3.919200e+01  6.928000e+00
      vertex  -8.485000e+00 -3.429300e+01  3.464000e+00
      vertex  -1.697100e+01 -3.919200e+01  6.928000e+00
    endloop
  endfacet
  facet normal  5.000027e-01 -2.886660e-01  8.164981e-01
    outer loop
      vertex   2.545600e+01 -3.429300e+01  3.464000e+00
      vertex   3.394100e+01 -1.959600e+01  3.464000e+00
      vertex   2.545600e+01 -2.449500e+01  6.928000e+00
    endloop
  endfacet
  facet normal  5.000030e-01 -2.886660e-01  8.164980e-01
    outer loop
      vertex  -4.242600e+01  4.899000e+00  6.928000e+00
      vertex  -3.394100e+01  9.798000e+00  3.464000e+00
      vertex  -3.394100e+01  1.959600e+01  6.928000e+00
    endloop
  endfacet
  facet normal  5.000027e-01 -2.886660e-01  8.164982e-01
    outer loop
      vertex  -2.545600e+01  2.449500e+01  3.464000e+00
      vertex  -2.545600e+01  3.429300e+01  6.928000e+00
      vertex  -3.394100e+01  1.959600e+01  6.928000e+00
    endloop
  endfacet
  facet normal -5.000027e-01 -2.886660e-01  8.164981e-01
    outer loop
      vertex   2.545600e+01  3.429300e+01  6.928000e+00
      vertex   2.545600e+01  2.449500e+01  3.464000e+00
      vertex   3.394100e+01  1.959600e+01  6.928000e+00
    endloop
  endfacet
  facet normal -5.000030e-01 -2.886660e-01  8.164980e-01
    outer loop
      vertex   3.394100e+01  1.959600e+01  6.928000e+00
      vertex   3.394100e+01  9.798000e+00  3.464000e+00
      vertex   4.242600e+01  4.899000e+00  6.928000e+00
    endloop
  endfacet
  facet normal -0.000000e+00  5.773372e-01  8.165058e-01
    outer loop
      vertex  -1.697100e+01  3.919200e+01  3.464000e+00
      vertex  -8.485000e+00  3.429300e+01  6.928000e+00
      vertex   0.000000e+00  3.919200e+01  3.464000e+00
    endloop
  endfacet
  facet normal -0.000000e+00  5.773372e-01  8.165058e-01
    outer loop
      vertex   0.000000e+00  3.919200e+01  3.464000e+00
      vertex   8.485000e+00  3.429300e+01  6.928000e+00
      vertex   1.697100e+01  3.919200e+01  3.464000e+00
    endloop
  endfacet
endsolid vcg
