solid rhombicDodecahedron
facet normal 0 -0.707106781186547 -0.707106781186547
    outer loop
        vertex 6.0 -6.0 -6.0
        vertex -6.0 -6.0 -6.0
        vertex 0.0 0.0 -12.0
    endloop
endfacet
facet normal -0.707106781186547 0 -0.707106781186547
    outer loop
        vertex -6.0 -6.0 -6.0
        vertex -6.0 6.0 -6.0
        vertex 0.0 0.0 -12.0
    endloop
endfacet
facet normal 0 0.707106781186547 -0.707106781186547
    outer loop
        vertex -6.0 6.0 -6.0
        vertex 6.0 6.0 -6.0
        vertex 0.0 0.0 -12.0
    endloop
endfacet
facet normal 0.707106781186547 0 -0.707106781186547
    outer loop
        vertex 6.0 6.0 -6.0
        vertex 6.0 -6.0 -6.0
        vertex 0.0 0.0 -12.0
    endloop
endfacet
facet normal -0.707106781186547 -0.707106781186547 0
    outer loop
        vertex -6.0 -6.0 6.0
        vertex -6.0 -6.0 -6.0
        vertex 0.0 -12.0 0.0
    endloop
endfacet
facet normal 0 -0.707106781186547 -0.707106781186547
    outer loop
        vertex -6.0 -6.0 -6.0
        vertex 6.0 -6.0 -6.0
        vertex 0.0 -12.0 0.0
    endloop
endfacet
facet normal 0.707106781186547 -0.707106781186547 0
    outer loop
        vertex 6.0 -6.0 -6.0
        vertex 6.0 -6.0 6.0
        vertex 0.0 -12.0 0.0
    endloop
endfacet
facet normal 0 -0.707106781186547 0.707106781186547
    outer loop
        vertex 6.0 -6.0 6.0
        vertex -6.0 -6.0 6.0
        vertex 0.0 -12.0 0.0
    endloop
endfacet
facet normal -0.707106781186547 0 -0.707106781186547
    outer loop
        vertex -6.0 6.0 -6.0
        vertex -6.0 -6.0 -6.0
        vertex -12.0 0.0 0.0
    endloop
endfacet
facet normal -0.707106781186547 -0.707106781186547 0
    outer loop
        vertex -6.0 -6.0 -6.0
        vertex -6.0 -6.0 6.0
        vertex -12.0 0.0 0.0
    endloop
endfacet
facet normal -0.707106781186547 0 0.707106781186547
    outer loop
        vertex -6.0 -6.0 6.0
        vertex -6.0 6.0 6.0
        vertex -12.0 0.0 0.0
    endloop
endfacet
facet normal -0.707106781186547 0.707106781186547 0
    outer loop
        vertex -6.0 6.0 6.0
        vertex -6.0 6.0 -6.0
        vertex -12.0 0.0 0.0
    endloop
endfacet
facet normal 0 -0.707106781186547 0.707106781186547
    outer loop
        vertex -6.0 -6.0 6.0
        vertex 6.0 -6.0 6.0
        vertex 0.0 0.0 12.0
    endloop
endfacet
facet normal 0.707106781186547 0 0.707106781186547
    outer loop
        vertex 6.0 -6.0 6.0
        vertex 6.0 6.0 6.0
        vertex 0.0 0.0 12.0
    endloop
endfacet
facet normal 0 0.707106781186547 0.707106781186547
    outer loop
        vertex 6.0 6.0 6.0
        vertex -6.0 6.0 6.0
        vertex 0.0 0.0 12.0
    endloop
endfacet
facet normal -0.707106781186547 0 0.707106781186547
    outer loop
        vertex -6.0 6.0 6.0
        vertex -6.0 -6.0 6.0
        vertex 0.0 0.0 12.0
    endloop
endfacet
facet normal -0.707106781186547 0.707106781186547 0
    outer loop
        vertex -6.0 6.0 -6.0
        vertex -6.0 6.0 6.0
        vertex 0.0 12.0 0.0
    endloop
endfacet
facet normal 0 0.707106781186547 0.707106781186547
    outer loop
        vertex -6.0 6.0 6.0
        vertex 6.0 6.0 6.0
        vertex 0.0 12.0 0.0
    endloop
endfacet
facet normal 0.707106781186547 0.707106781186547 0
    outer loop
        vertex 6.0 6.0 6.0
        vertex 6.0 6.0 -6.0
        vertex 0.0 12.0 0.0
    endloop
endfacet
facet normal 0 0.707106781186547 -0.707106781186547
    outer loop
        vertex 6.0 6.0 -6.0
        vertex -6.0 6.0 -6.0
        vertex 0.0 12.0 0.0
    endloop
endfacet
facet normal 0.707106781186547 0 -0.707106781186547
    outer loop
        vertex 6.0 -6.0 -6.0
        vertex 6.0 6.0 -6.0
        vertex 12.0 0.0 0.0
    endloop
endfacet
facet normal 0.707106781186547 0.707106781186547 0
    outer loop
        vertex 6.0 6.0 -6.0
        vertex 6.0 6.0 6.0
        vertex 12.0 0.0 0.0
    endloop
endfacet
facet normal 0.707106781186547 0 0.707106781186547
    outer loop
        vertex 6.0 6.0 6.0
        vertex 6.0 -6.0 6.0
        vertex 12.0 0.0 0.0
    endloop
endfacet
facet normal 0.707106781186547 -0.707106781186547 0
    outer loop
        vertex 6.0 -6.0 6.0
        vertex 6.0 -6.0 -6.0
        vertex 12.0 0.0 0.0
    endloop
endfacet
endsolid
